<svg width="60" height="60" viewBox="0 0 60 60" fill="none" xmlns="http://www.w3.org/2000/svg">
<path fill-rule="evenodd" clip-rule="evenodd" d="M16.8543 6.24886C15.9776 6.24886 15.2645 6.96182 15.2645 7.83858L15.2646 22.9126C15.2646 23.7893 15.9775 24.5023 16.8542 24.5023H43.143C44.0198 24.5023 44.7327 23.7893 44.7327 22.9126L44.7328 7.83858C44.7328 6.96182 44.0197 6.2489 43.1429 6.2489L16.8543 6.24886ZM43.143 25.7356H16.8543C15.2979 25.7356 14.0312 24.4691 14.0312 22.9126L14.0314 7.83858C14.0314 6.28201 15.2977 5.01562 16.8542 5.01562H43.143C44.6995 5.01562 45.966 6.28205 45.966 7.83858L45.966 22.9126C45.966 24.4691 44.6995 25.7356 43.143 25.7356Z" fill="black"/>
<path fill-rule="evenodd" clip-rule="evenodd" d="M12.8826 36.5967C12.5411 36.5967 12.2656 36.3205 12.2656 35.98L12.266 32.7192C12.266 31.1445 13.547 29.8631 15.1218 29.8631L24.2395 29.863C25.1345 29.863 25.8623 29.1351 25.8623 28.2402L25.8624 25.1186C25.8624 24.777 26.1385 24.502 26.4789 24.502C26.8196 24.502 27.0955 24.777 27.0955 25.1186L27.0957 28.2402C27.0957 29.8149 25.8141 31.0963 24.2394 31.0963H15.1222C14.2271 31.0963 13.4989 31.8243 13.4989 32.7192L13.4992 35.98C13.4992 36.3205 13.2227 36.5967 12.8826 36.5967Z" fill="black"/>
<path fill-rule="evenodd" clip-rule="evenodd" d="M11.8188 53.7526H13.9447V52.9529C13.9447 52.6628 14.1469 52.4112 14.4317 52.3502C15.296 52.1639 16.1125 51.8256 16.8586 51.3439C17.1029 51.1865 17.4238 51.2208 17.6294 51.4263L18.195 51.9916L19.698 50.4886L19.1325 49.9223C18.9273 49.7167 18.8926 49.3955 19.05 49.1515C19.5328 48.4064 19.8711 47.5896 20.0573 46.7246C20.1186 46.4409 20.3688 46.2375 20.6601 46.2375H21.4588V44.1115H20.6591C20.3691 44.1115 20.1173 43.9091 20.0563 43.6244C19.8715 42.7594 19.5317 41.9426 19.051 41.1975C18.8926 40.9534 18.9269 40.6323 19.1324 40.4268L19.698 39.8615L18.195 38.3585L17.6295 38.9237C17.4243 39.1293 17.1027 39.1635 16.8586 39.0062C16.1125 38.5244 15.2968 38.1851 14.4317 37.9999C14.147 37.9389 13.9447 37.6873 13.9447 37.3972V36.5975H11.8188V37.3972C11.8188 37.6873 11.6152 37.9389 11.3315 37.9999C10.4666 38.185 9.64973 38.5244 8.90356 39.0051C8.65958 39.1635 8.3394 39.1293 8.13383 38.9237L7.56797 38.3585L6.06497 39.8615L6.63003 40.4268C6.83574 40.6323 6.86958 40.9534 6.71224 41.1975C6.23068 41.9437 5.89112 42.7594 5.70593 43.6244C5.64489 43.9091 5.39329 44.1115 5.10215 44.1115H4.30376V46.2375H5.10343C5.39343 46.2375 5.64489 46.4409 5.70593 46.7246C5.89251 47.5896 6.23051 48.4064 6.71224 49.1515C6.86993 49.3955 6.83533 49.7167 6.62979 49.9223L6.06497 50.4886L7.56797 51.9916L8.134 51.4263C8.33874 51.2208 8.65954 51.1865 8.90356 51.3439C9.65005 51.8256 10.4665 52.165 11.3315 52.3502C11.6155 52.4112 11.8186 52.6628 11.8186 52.9529L11.8188 53.7526ZM14.5613 54.9858H11.2022C10.8606 54.9858 10.5853 54.7096 10.5853 54.3692L10.5856 53.4368C9.91448 53.2505 9.27077 52.9839 8.6638 52.6403L8.00344 53.2998C7.76261 53.5406 7.37277 53.5406 7.13187 53.2998L4.7566 50.9242C4.5157 50.6834 4.51553 50.2927 4.7564 50.0518L5.41606 49.3924C5.0726 48.7854 4.80567 48.142 4.62044 47.4708H3.68714C3.34651 47.4708 3.07031 47.1956 3.07031 46.8541L3.07052 43.4948C3.07052 43.1545 3.34651 42.8782 3.6869 42.8782H4.61975C4.80571 42.207 5.07218 41.5647 5.41575 40.9577L4.7566 40.2972C4.5157 40.0563 4.51553 39.6667 4.7564 39.4258L7.13201 37.0503C7.37288 36.8095 7.76344 36.8095 8.00327 37.0503L8.66394 37.7097C9.2709 37.3661 9.91413 37.0995 10.5853 36.9133L10.5856 35.9809C10.5856 35.6404 10.8605 35.3643 11.202 35.3643H14.5613C14.9019 35.3643 15.1779 35.6404 15.1779 35.9809V36.9133C15.8495 37.0995 16.4914 37.3662 17.0984 37.7098L17.7591 37.0503C17.8747 36.9347 18.0308 36.8694 18.1946 36.8694C18.3588 36.8694 18.5147 36.9347 18.6303 37.0503L21.0059 39.4258C21.2468 39.6667 21.2467 40.0563 21.0058 40.2972L20.3464 40.9577C20.6904 41.5647 20.9566 42.207 21.1428 42.8782H22.0754C22.416 42.8782 22.6919 43.1545 22.6919 43.4948L22.692 46.8541C22.692 47.1956 22.4157 47.4708 22.0752 47.4708H21.1433C20.9568 48.142 20.69 48.7854 20.3463 49.3924L21.0059 50.0518C21.2468 50.2927 21.2467 50.6834 21.0058 50.9242L18.6305 53.2998C18.5149 53.4154 18.3584 53.4807 18.1946 53.4807H18.195C18.0312 53.4807 17.8745 53.4154 17.7589 53.2998L17.0986 52.6392C16.4916 52.9839 15.848 53.2505 15.1779 53.4357V54.3692C15.1779 54.7096 14.9017 54.9858 14.5613 54.9858Z" fill="black"/>
<path fill-rule="evenodd" clip-rule="evenodd" d="M12.8799 41.3729C10.7824 41.3729 9.07699 43.0782 9.07699 45.1743C9.07706 47.2715 10.7824 48.9768 12.8795 48.9768C14.9759 48.9768 16.6809 47.2715 16.6809 45.1743C16.6812 43.0782 14.9756 41.3729 12.8799 41.3729ZM12.8799 50.21C10.1027 50.21 7.84375 47.9512 7.84375 45.1743C7.84382 42.3984 10.1026 40.1396 12.8795 40.1396C15.6556 40.1396 17.9142 42.3984 17.9142 45.1743C17.9145 47.9512 15.6554 50.21 12.8799 50.21Z" fill="black"/>
<path fill-rule="evenodd" clip-rule="evenodd" d="M47.1121 36.5967C46.7715 36.5967 46.4951 36.3205 46.4951 35.98L46.4955 32.7192C46.4955 31.8243 45.7672 31.0963 44.8722 31.0963H35.7548C34.1799 31.0963 32.8984 29.8149 32.8984 28.2402L32.8986 25.1186C32.8986 24.777 33.1746 24.502 33.5151 24.502C33.8557 24.502 34.1317 24.777 34.1317 25.1186L34.1318 28.2402C34.1318 29.1351 34.8597 29.8631 35.7546 29.8631L44.8726 29.863C46.4473 29.863 47.7284 31.1445 47.7284 32.7192L47.7288 35.98C47.7288 36.3205 47.4533 36.5967 47.1121 36.5967Z" fill="black"/>
<path fill-rule="evenodd" clip-rule="evenodd" d="M46.0521 53.7516H48.178V52.9519C48.178 52.6618 48.3814 52.4103 48.6651 52.3492C49.5303 52.164 50.3468 51.8247 51.0919 51.3429C51.3362 51.1856 51.6573 51.2198 51.8628 51.4254L52.4293 51.9906L53.9323 50.4876L53.3668 49.9213C53.1615 49.7157 53.127 49.3946 53.2844 49.1505C53.7661 48.4054 54.1044 47.5886 54.2906 46.7237C54.3519 46.4399 54.6033 46.2366 54.8934 46.2366H55.6931V44.1105H54.8934C54.6034 44.1105 54.3517 43.9082 54.2906 43.6234C54.1048 42.7584 53.7661 41.9427 53.2844 41.1966C53.1273 40.9524 53.1613 40.6313 53.3668 40.4258L53.9323 39.8605L52.4293 38.3575L51.8628 38.9228C51.6586 39.1283 51.336 39.1626 51.0931 39.0052C50.3473 38.5234 49.53 38.1841 48.6651 37.9989C48.3818 37.9379 48.178 37.6863 48.178 37.3962V36.5965H46.0521V37.3962C46.0521 37.6863 45.8496 37.9379 45.5649 37.9989C44.6999 38.1852 43.883 38.5234 43.138 39.0052C42.8939 39.1626 42.5727 39.1283 42.3672 38.9228L41.8023 38.3575L40.2983 39.8605L40.8643 40.4258C41.07 40.6313 41.104 40.9524 40.9455 41.1966C40.464 41.9416 40.1255 42.7584 39.9403 43.6234C39.8797 43.9082 39.6277 44.1105 39.3377 44.1105H38.5381V46.2366H39.3368C39.6277 46.2366 39.8782 46.4399 39.9393 46.7237C40.1258 47.5886 40.4638 48.4054 40.9455 49.1505C41.1042 49.3946 41.0697 49.7157 40.8642 49.9213L40.2983 50.4876L41.8023 51.9906L42.3674 51.4254C42.573 51.2198 42.8939 51.1856 43.138 51.3429C43.8843 51.8247 44.701 52.163 45.5649 52.3492C45.8498 52.4102 46.0519 52.6618 46.0519 52.9519L46.0521 53.7516ZM48.7946 54.9849H45.4355C45.0949 54.9849 44.8187 54.7087 44.8187 54.3682L44.8189 53.4347C44.1488 53.2495 43.5051 52.983 42.8982 52.6383L42.2378 53.2988C42.1221 53.4144 41.9658 53.4797 41.802 53.4797C41.6385 53.4797 41.4818 53.4144 41.3662 53.2988L38.9909 50.9233C38.75 50.6824 38.7499 50.2917 38.9908 50.0508L39.6504 49.3914C39.3069 48.7844 39.04 48.141 38.8538 47.4698H37.9214C37.5813 47.4698 37.3047 47.1947 37.3047 46.8532L37.3048 43.4939C37.3048 43.1535 37.5809 42.8773 37.9213 42.8773H38.854C39.04 42.206 39.3066 41.5637 39.6503 40.9568L38.9909 40.2962C38.75 40.0554 38.7499 39.6657 38.9908 39.4248L41.3662 37.0493C41.6072 36.8085 41.9968 36.8085 42.2376 37.0494L42.8982 37.7088C43.5052 37.3652 44.1475 37.0986 44.8187 36.9123L44.8189 35.9799C44.8189 35.6394 45.0949 35.3633 45.4353 35.3633H48.7946C49.1352 35.3633 49.4113 35.6394 49.4113 35.9799V36.9123C50.0828 37.0986 50.7259 37.3652 51.3328 37.7088L51.9924 37.0493C52.2333 36.8085 52.6238 36.8085 52.8647 37.0494L55.2402 39.4248C55.4811 39.6657 55.481 40.0554 55.2402 40.2962L54.5798 40.9567C54.9247 41.5637 55.191 42.2061 55.3773 42.8773H56.3097C56.6503 42.8773 56.9262 43.1535 56.9262 43.4939L56.9263 46.8532C56.9263 47.1947 56.65 47.4698 56.3097 47.4698H55.3766C55.1911 48.141 54.9244 48.7844 54.5798 49.3914L55.2402 50.0519C55.4811 50.2917 55.481 50.6824 55.2402 50.9233L52.8648 53.2988C52.624 53.5397 52.2331 53.5397 51.9923 53.2988L51.3329 52.6393C50.7259 52.983 50.0825 53.2495 49.4113 53.4358V54.3682C49.4113 54.7087 49.1351 54.9849 48.7946 54.9849Z" fill="black"/>
<path fill-rule="evenodd" clip-rule="evenodd" d="M47.1131 41.3729C45.0171 41.3729 43.3113 43.0782 43.3113 45.1743C43.3117 47.2715 45.0167 48.9768 47.1127 48.9768C49.2101 48.9768 50.9152 47.2715 50.9152 45.1743C50.9154 43.0782 49.2098 41.3729 47.1131 41.3729ZM47.1131 50.21C44.3369 50.21 42.0781 47.9512 42.0781 45.1743C42.0785 42.3984 44.3369 40.1396 47.1127 40.1396C49.8898 40.1396 52.1484 42.3984 52.1484 45.1743C52.1487 47.9512 49.8896 50.21 47.1131 50.21Z" fill="black"/>
<path fill-rule="evenodd" clip-rule="evenodd" d="M26.8024 15.4575H21.6637C21.3231 15.4575 21.0469 15.1813 21.0469 14.8409L21.0471 5.63224C21.0471 5.29179 21.3231 5.01562 21.6635 5.01562C22.0043 5.01562 22.2801 5.29182 22.2801 5.63224L22.2803 14.2243H26.1858V5.63224C26.1858 5.29179 26.4616 5.01562 26.802 5.01562C27.1439 5.01562 27.4186 5.29182 27.4186 5.63224L27.419 14.8409C27.419 15.1813 27.1436 15.4575 26.8024 15.4575Z" fill="black"/>
<path fill-rule="evenodd" clip-rule="evenodd" d="M38.3265 15.4575H33.1869C32.8468 15.4575 32.5703 15.1813 32.5703 14.8409L32.5707 5.63224C32.5707 5.29179 32.8464 5.01562 33.1869 5.01562C33.5284 5.01562 33.8036 5.29182 33.8036 5.63224L33.804 14.2243H37.7098V5.63224C37.7098 5.29179 37.986 5.01562 38.3265 5.01562C38.6671 5.01562 38.9431 5.29182 38.9431 5.63224V14.8409C38.9431 15.1813 38.667 15.4575 38.3265 15.4575Z" fill="black"/>
<path fill-rule="evenodd" clip-rule="evenodd" d="M21.8116 19.201H19.0233C18.6817 19.201 18.4062 18.9258 18.4062 18.5854C18.4067 18.2439 18.6814 17.9688 19.0229 17.9688L21.8116 17.9688C22.1522 17.9688 22.4283 18.2439 22.4283 18.5854C22.4287 18.9258 22.152 19.201 21.8116 19.201Z" fill="black"/>
<path fill-rule="evenodd" clip-rule="evenodd" d="M21.8116 21.991H19.0233C18.6817 21.991 18.4062 21.7159 18.4062 21.3744C18.4067 21.034 18.6814 20.7578 19.0229 20.7578H21.8116C22.1522 20.7578 22.4283 21.034 22.4283 21.3744C22.4287 21.7159 22.152 21.9911 21.8116 21.991Z" fill="black"/>
<path fill-rule="evenodd" clip-rule="evenodd" d="M28.1956 19.201H25.4059C25.0653 19.201 24.7891 18.9258 24.7891 18.5854C24.7892 18.2439 25.0653 17.9688 25.4057 17.9688L28.1956 17.9688C28.5361 17.9688 28.8121 18.2439 28.8121 18.5854C28.8122 18.9258 28.5359 19.201 28.1956 19.201Z" fill="black"/>
<path fill-rule="evenodd" clip-rule="evenodd" d="M28.1956 21.991H25.4059C25.0653 21.991 24.7891 21.7159 24.7891 21.3744C24.7892 21.034 25.0653 20.7578 25.4057 20.7578H28.1956C28.5361 20.7578 28.8121 21.034 28.8121 21.3744C28.8122 21.7159 28.5359 21.9911 28.1956 21.991Z" fill="black"/>
<path fill-rule="evenodd" clip-rule="evenodd" d="M34.5852 19.201H31.7964C31.4548 19.201 31.1797 18.9258 31.1797 18.5854C31.1798 18.2439 31.4547 17.9688 31.7963 17.9688L34.5852 17.9688C34.9258 17.9688 35.2017 18.2439 35.2017 18.5854C35.2018 18.9258 34.9254 19.201 34.5852 19.201Z" fill="black"/>
<path fill-rule="evenodd" clip-rule="evenodd" d="M34.5852 21.991H31.7964C31.4548 21.991 31.1797 21.7159 31.1797 21.3744C31.1798 21.034 31.4547 20.7578 31.7963 20.7578H34.5852C34.9258 20.7578 35.2017 21.034 35.2017 21.3744C35.2018 21.7159 34.9254 21.9911 34.5852 21.991Z" fill="black"/>
<path fill-rule="evenodd" clip-rule="evenodd" d="M40.9692 19.201H38.1795C37.8389 19.201 37.5625 18.9258 37.5625 18.5854C37.5629 18.2439 37.8387 17.9688 38.1791 17.9688L40.9692 17.9688C41.3093 17.9688 41.5854 18.2439 41.5854 18.5854C41.5858 18.9258 41.3093 19.201 40.9692 19.201Z" fill="black"/>
<path fill-rule="evenodd" clip-rule="evenodd" d="M40.9692 21.991H38.1795C37.8389 21.991 37.5625 21.7159 37.5625 21.3744C37.5629 21.034 37.8387 20.7578 38.1791 20.7578H40.9692C41.3093 20.7578 41.5854 21.034 41.5854 21.3744C41.5858 21.7159 41.3093 21.9911 40.9692 21.991Z" fill="black"/>
</svg>
