<svg width="100" height="100" viewBox="0 0 100 100" fill="none" xmlns="http://www.w3.org/2000/svg">
<g clip-path="url(#clip0_8891_32999)">
<path d="M90.0037 8.33333C89.8159 8.33333 89.6297 8.365 89.4524 8.42688L58.3359 19.3173V10C58.3361 9.07979 57.5905 8.33354 56.6703 8.33333C56.4826 8.33333 56.2964 8.365 56.1191 8.42688L25.0026 19.3173V1.66667C25.0028 0.746458 24.257 0.000208377 23.3368 4.36346e-08H23.3359H10.0026C9.0824 -0.00020829 8.33615 0.745625 8.33594 1.66583V1.66667V35C8.33573 35.9202 9.08156 36.6665 10.0018 36.6667H10.0026H48.3359V48.3333H15.0026C14.0824 48.3331 13.3361 49.079 13.3359 49.9992V50V70H16.6693V51.6667H48.3359V70H51.6693V51.6667H83.3359V70H86.6693V50C86.6695 49.0798 85.9237 48.3335 85.0034 48.3333H85.0026H51.6693V36.6667H90.0026C90.9228 36.6669 91.6691 35.921 91.6693 35.0008V35V10C91.6697 9.07979 90.9239 8.33354 90.0037 8.33333ZM88.3359 33.3333H11.6693V3.33333H21.6693V21.6667C21.6691 22.5869 22.4147 23.3331 23.3349 23.3333C23.5226 23.3333 23.7089 23.3017 23.8861 23.2398L55.0026 12.3494V21.6667C55.0024 22.5869 55.748 23.3331 56.6682 23.3333C56.8559 23.3333 57.0422 23.3017 57.2195 23.2398L88.3359 12.3494V33.3333Z" fill="black"/>
<path d="M29.9974 26.667H26.6641V30.0003H29.9974V26.667Z" fill="black"/>
<path d="M39.9974 26.667H36.6641V30.0003H39.9974V26.667Z" fill="black"/>
<path d="M49.9974 26.667H46.6641V30.0003H49.9974V26.667Z" fill="black"/>
<path d="M69.9974 26.667H66.6641V30.0003H69.9974V26.667Z" fill="black"/>
<path d="M79.9974 26.667H76.6641V30.0003H79.9974V26.667Z" fill="black"/>
<path d="M59.9974 26.667H56.6641V30.0003H59.9974V26.667Z" fill="black"/>
<path d="M29.3321 83.6668L23.3328 79.1672V73.333H19.9994V76.6672L15.9988 73.6668C15.4067 73.2224 14.5924 73.2224 14.0001 73.6668L0.66673 83.6668C-0.0695205 84.219 -0.218896 85.2634 0.333396 85.9999C0.647979 86.4195 1.14173 86.6663 1.6661 86.6666H4.99944V98.3332C4.99923 99.2534 5.74506 99.9997 6.66527 99.9999H6.6661H23.3328C24.253 100 24.9992 99.2543 24.9994 98.3341V98.3332V86.6666H28.3328C29.2532 86.6663 29.999 85.9199 29.9988 84.9997C29.9986 84.4751 29.7517 83.9813 29.3321 83.6668ZM21.6661 84.9988V84.9997V96.6663H8.33277V84.9997C8.33298 84.0795 7.58715 83.3332 6.66694 83.333H6.6661L14.9994 77.083L23.3328 83.333C22.4126 83.3328 21.6663 84.0786 21.6661 84.9988Z" fill="black"/>
<path d="M64.3321 83.6668L58.3328 79.1672V73.333H54.9994V76.6672L50.9988 73.6668C50.4067 73.2224 49.5924 73.2224 49.0001 73.6668L35.6667 83.6668C34.9305 84.219 34.7811 85.2634 35.3334 85.9999C35.648 86.4195 36.1417 86.6663 36.6661 86.6666H39.9994V98.3332C39.9992 99.2534 40.7451 99.9997 41.6653 99.9999H41.6661H58.3328C59.253 100 59.9992 99.2543 59.9994 98.3341V98.3332V86.6666H63.3328C64.2532 86.6663 64.999 85.9199 64.9988 84.9997C64.9986 84.4751 64.7517 83.9813 64.3321 83.6668ZM56.6661 84.9988V84.9997V96.6663H43.3328V84.9997C43.333 84.0795 42.5871 83.3332 41.6669 83.333H41.6661L49.9994 77.083L58.3328 83.333C57.4126 83.3328 56.6663 84.0786 56.6661 84.9988Z" fill="black"/>
<path d="M99.3321 83.6668L93.3328 79.1672V73.333H89.9994V76.6672L85.9988 73.6668C85.4067 73.2224 84.5924 73.2224 84.0001 73.6668L70.6667 83.6668C69.9305 84.219 69.7811 85.2634 70.3334 85.9999C70.648 86.4195 71.1417 86.6663 71.6661 86.6666H74.9994V98.3332C74.9992 99.2534 75.7451 99.9997 76.6653 99.9999H76.6661H93.3328C94.253 100 94.9992 99.2543 94.9994 98.3341V98.3332V86.6666H98.3328C99.2532 86.6663 99.999 85.9199 99.9988 84.9997C99.9986 84.4751 99.7517 83.9813 99.3321 83.6668ZM91.6661 84.9988V84.9997V96.6663H78.3328V84.9997C78.333 84.0795 77.5871 83.3332 76.6669 83.333H76.6661L84.9994 77.083L93.3328 83.333C92.4126 83.3328 91.6663 84.0786 91.6661 84.9988Z" fill="black"/>
</g>
<defs>
<clipPath id="clip0_8891_32999">
<rect width="100" height="100" fill="white"/>
</clipPath>
</defs>
</svg>
